<svg width="108" height="32" viewBox="0 0 108 32" fill="none" xmlns="http://www.w3.org/2000/svg">
<g clip-path="url(#clip0_1_1163)">
<path fill-rule="evenodd" clip-rule="evenodd" d="M25.9373 18.8648C25.9373 11.7022 20.1311 5.89609 12.9687 5.89609C5.80622 5.89609 0 11.7022 0 18.8648C0 26.0273 5.80622 31.8335 12.9687 31.8335C20.1311 31.8335 25.9373 26.0273 25.9373 18.8648ZM12.9686 12.4158C16.3736 12.4158 19.134 15.2905 19.134 18.8363C19.134 22.3822 16.3736 25.2568 12.9686 25.2568C9.56369 25.2568 6.80324 22.3822 6.80324 18.8363C6.80324 15.2905 9.56369 12.4158 12.9686 12.4158Z" fill="#ED2590"/>
<path fill-rule="evenodd" clip-rule="evenodd" d="M40.6777 5.66971C33.355 6.34033 29.6227 10.4979 29.4807 18.1422V31.3235H36.4256V17.0084C36.3716 14.2809 37.8362 12.958 40.8193 13.0398L40.6777 5.66971Z" fill="#ED2590"/>
<path fill-rule="evenodd" clip-rule="evenodd" d="M44.6461 0V31.3232H51.1659V22.2522C56.5409 21.5597 59.1394 24.5833 58.9612 31.3232H65.481C65.825 23.2392 62.9903 18.2785 57.5439 17.0081L66.4732 6.37802H58.3943L51.3076 15.449V0H44.6461Z" fill="#ED2590"/>
<path fill-rule="evenodd" clip-rule="evenodd" d="M69.5915 6.66126L69.7332 22.3937C70.9124 34.7222 90.6136 35.6715 92.2689 22.3937L92.4106 6.66126L85.4657 6.51952L85.6074 19.4173C85.3117 27.5436 76.3825 27.4019 76.253 19.4173V6.37778L69.5915 6.66126Z" fill="#ED2590"/>
<path fill-rule="evenodd" clip-rule="evenodd" d="M95.9537 0.283646L96.0954 19.7013C95.9152 26.6544 100.829 31.9928 107.292 31.7486L107.151 24.9453C104.943 24.7198 103.526 23.2079 102.899 20.4098V13.1814H107.292V6.37818H102.757V0.283646H95.9537Z" fill="#ED2590"/>
</g>
<defs>
<clipPath id="clip0_1_1163">
<rect width="107.293" height="32" fill="white"/>
</clipPath>
</defs>
</svg>
