<?xml version="1.0" encoding="iso-8859-1"?>
<!-- Generator: Adobe Illustrator 19.0.0, SVG Export Plug-In . SVG Version: 6.00 Build 0)  -->
<svg version="1.1" id="Layer_1" xmlns="http://www.w3.org/2000/svg" xmlns:xlink="http://www.w3.org/1999/xlink" x="0px" y="0px"
	 viewBox="0 0 228.569 228.569" style="enable-background:new 0 0 228.569 228.569;" xml:space="preserve">
<g>
	<path style="fill:#93278F;" d="M104.706,0.031c63.252-1.467,121.691,50.006,120.087,114.266
		c-1.283,53.122-47.393,111.012-102.532,112.845C64.143,238.737,9.783,177.456,4.282,124.38C-1.722,66.72,43.15,1.451,104.706,0.031
		z M168.462,117.367c1.65-28.463-28.967-55.093-56.468-53.993c-19.755,0.825-32.588,10.405-39.372,23.513
		c-0.642,1.696-1.375,3.346-2.2,4.904c-12.009,31.397,6.784,77.552,47.943,77.781C143.436,162.652,166.766,146.289,168.462,117.367z
		"/>
</g>
<g>
</g>
<g>
</g>
<g>
</g>
<g>
</g>
<g>
</g>
<g>
</g>
<g>
</g>
<g>
</g>
<g>
</g>
<g>
</g>
<g>
</g>
<g>
</g>
<g>
</g>
<g>
</g>
<g>
</g>
</svg>
